<svg width="15" height="16" viewBox="0 0 15 16" fill="none" xmlns="http://www.w3.org/2000/svg">
<circle cx="7.49997" cy="7.59832" r="7.4646" fill="black"/>
<circle cx="7.49999" cy="7.59832" r="5.8295" fill="white"/>
<rect x="5.96652" y="1.61141" width="2.12921" height="2.12921" transform="rotate(-45 5.96652 1.61141)" fill="black"/>
<rect x="4.51669" y="6.07239" width="2.12921" height="2.12921" transform="rotate(-45 4.51669 6.07239)" fill="white"/>
<rect x="7.47211" y="3.11699" width="2.12921" height="2.12921" transform="rotate(-45 7.47211 3.11699)" fill="white"/>
<rect x="8.97768" y="7.63373" width="2.12921" height="2.12921" transform="rotate(-45 8.97768 7.63373)" fill="black"/>
<rect x="6.02228" y="10.5891" width="2.12921" height="2.12921" transform="rotate(135 6.02228 10.5891)" fill="black"/>
<rect x="11.9888" y="10.6449" width="2.12921" height="2.12921" transform="rotate(135 11.9888 10.6449)" fill="black"/>
<rect x="5.96652" y="7.63373" width="2.12921" height="2.12921" transform="rotate(135 5.96652 7.63373)" fill="black"/>
<rect x="8.97768" y="4.62257" width="2.12921" height="2.12921" transform="rotate(-45 8.97768 4.62257)" fill="black"/>
<rect x="10.4833" y="6.12815" width="2.12921" height="2.12921" transform="rotate(-45 10.4833 6.12815)" fill="white"/>
<rect x="7.52786" y="12.0947" width="2.12921" height="2.12921" transform="rotate(135 7.52786 12.0947)" fill="white"/>
<rect x="7.47211" y="3.11699" width="2.12921" height="2.12921" transform="rotate(135 7.47211 3.11699)" fill="white"/>
<rect x="10.4833" y="12.1505" width="2.12921" height="2.12921" transform="rotate(135 10.4833 12.1505)" fill="white"/>
<rect x="4.51669" y="9.08355" width="2.12921" height="2.12921" transform="rotate(135 4.51669 9.08355)" fill="white"/>
<rect x="10.4833" y="9.13931" width="2.12921" height="2.12921" transform="rotate(135 10.4833 9.13931)" fill="white"/>
<rect x="4.46094" y="6.12815" width="2.12921" height="2.12921" transform="rotate(135 4.46094 6.12815)" fill="white"/>
<rect x="7.47211" y="9.13931" width="2.12921" height="2.12921" transform="rotate(135 7.47211 9.13931)" fill="white"/>
<rect x="13.4944" y="9.13931" width="2.12921" height="2.12921" transform="rotate(135 13.4944 9.13931)" fill="white"/>
<rect x="10.4833" y="6.12815" width="2.12921" height="2.12921" transform="rotate(135 10.4833 6.12815)" fill="white"/>
<rect x="9.03345" y="13.6003" width="2.12921" height="2.12921" transform="rotate(135 9.03345 13.6003)" fill="black"/>
<rect x="8.97768" y="10.6449" width="2.12921" height="2.12921" transform="rotate(135 8.97768 10.6449)" fill="black"/>
<rect x="3.01112" y="7.57797" width="2.12921" height="2.12921" transform="rotate(135 3.01112 7.57797)" fill="black"/>
<rect x="8.97768" y="7.63373" width="2.12921" height="2.12921" transform="rotate(135 8.97768 7.63373)" fill="black"/>
<rect x="5.96652" y="4.62257" width="2.12921" height="2.12921" transform="rotate(135 5.96652 4.62257)" fill="black"/>
<rect x="15" y="7.63373" width="2.12921" height="2.12921" transform="rotate(135 15 7.63373)" fill="black"/>
<rect x="8.97768" y="4.62257" width="2.12921" height="2.12921" transform="rotate(135 8.97768 4.62257)" fill="black"/>
</svg>
