<svg width="64" height="64" viewBox="0 0 64 64" version="1.1"
     xmlns="http://www.w3.org/2000/svg"
     xmlns:xlink="http://www.w3.org/1999/xlink">
  <title>privacy icon web</title>
  <g id="Canvas" transform="translate(0 0)">
    <use xlink:href="#path0_fill" transform="translate(0 0)" fill="#FFFFFF"/>
    <use xlink:href="#path1_fill" transform="translate(0 0)" fill="#DFDFE8"/>
    <use xlink:href="#Icon-Fill" transform="translate(20 20)" fill="#242428"/>
  </g>
  <defs>
    <path id="path0_fill" d="M 64 32C 64 49.6731 49.6731 64 32 64C 14.3269 64 0 49.6731 0 32C 0 14.3269 14.3269 0 32 0C 49.6731 0 64 14.3269 64 32Z"/>
    <path id="path1_fill" fill-rule="evenodd" d="M 32 62.6667C 48.9367 62.6667 62.6667 48.9367 62.6667 32C 62.6667 15.0633 48.9367 1.33333 32 1.33333C 15.0633 1.33333 1.33333 15.0633 1.33333 32C 1.33333 48.9367 15.0633 62.6667 32 62.6667ZM 32 64C 49.6731 64 64 49.6731 64 32C 64 14.3269 49.6731 0 32 0C 14.3269 0 0 14.3269 0 32C 0 49.6731 14.3269 64 32 64Z"/>
    <path id="Icon-Fill" d="M18,10 L17,10 L17,6 C17,3.23857625 14.7614237,1 12,1 C9.23857625,1 7,3.23857625 7,6 L7,10 L6,10 C5.44771525,10 5,10.4477153 5,11 L5,21 C5,21.5522847 5.44771525,22 6,22 L18,22 C18.5522847,22 19,21.5522847 19,21 L19,11 C19,10.4477153 18.5522847,10 18,10 Z M15,18 L9,18 L9,17 L15,17 L15,18 Z M15,15 L9,15 L9,14 L15,14 L15,15 Z M16,10 L8,10 L8,6 C8,3.790861 9.790861,2 12,2 C14.209139,2 16,3.790861 16,6 L16,10 Z"/>
  </defs>
</svg>